# xmcd
#
# Track frame offsets:
#	150
#	10212
#	20125
#	31900
#	41425
#	51437
#	63662
#	78200
#	88425
#	100137
#	114112
#	126487
#
# Disc length: 1832 seconds
#
# Revision: 0
# Processed by: cddbd v1.4PL0 Copyright (c) Steve Scherf et al.
# Submitted via: EasyCDDAExtractor 4.6.0.1
#
DISCID=9d07260c
DTITLE=Françoise Hardy - En anglais
DYEAR=1968
DGENRE=easy listening
TTITLE0=Loving you
TTITLE1=Hang on to a dream
TTITLE2=Will you love tomorrow
TTITLE3=Lonesome town
TTITLE4=Who'll be the next in line?
TTITLE5=Never learn to cry
TTITLE6=There but for fortune
TTITLE7=That'll be the day
TTITLE8=The way of love
TTITLE9=Tiny Goddess
TTITLE10=Let it be me
TTITLE11=Empty Sunday
EXTD=
EXTT0=
EXTT1=
EXTT2=
EXTT3=
EXTT4=
EXTT5=
EXTT6=
EXTT7=
EXTT8=
EXTT9=
EXTT10=
EXTT11=
PLAYORDER=
